<svg id="Layer_1" data-name="Layer 1" xmlns="http://www.w3.org/2000/svg" viewBox="0 0 483.51 483.51"><defs><style>.cls-1{fill:#1d1d1b;stroke:#1d1d1b;stroke-miterlimit:10;stroke-width:0.48px;}.cls-2{fill:#fff;stroke:#fff;stroke-linejoin:round;stroke-width:1.82px;}</style></defs><circle class="cls-1" cx="241.75" cy="241.75" r="241.51"/><path class="cls-2" d="M339.78,116.28l3.6-43.62S233.32,57.09,140.12,71.05L143,114.71C225.81,102.88,319.93,113.83,339.78,116.28Z"/><path class="cls-2" d="M186.67,359.42l-17.11-13.26a4.32,4.32,0,0,1-1.68-3.42V326.23a9.22,9.22,0,1,1,8.66,0v14.4l10.13,7.85V277.7a9.23,9.23,0,1,1,8.66-.81v134a137.46,137.46,0,0,0,16.13,4.52v-7.32a9.22,9.22,0,1,1,8.66,0V417a129,129,0,0,0,13.59,1.27V390.64l-20.6-16.32a4.31,4.31,0,0,1-1.64-3.39V354.42a9.23,9.23,0,1,1,8.66,0v14.43l13.58,10.76V309.86L219.49,298.6v9.78a9.22,9.22,0,1,1-8.83.21v-18.4a4.53,4.53,0,0,1-.07-.74V269.19a4.76,4.76,0,0,1,.07-.75v-9.7l-23.09-18.3a4.31,4.31,0,0,1-1.64-3.39V220.54a9.23,9.23,0,1,1,8.66,0V235l16.07,12.74V198.4l-23.09-18.29a4.35,4.35,0,0,1-1.64-3.4V160.2a9.22,9.22,0,1,1,8.66,0v14.43l21.7,17.19a4.28,4.28,0,0,1,1.33,1.79,4.4,4.4,0,0,1,1.87,3.6v90.35l14.22,11.26V176.35l-27.07-23.68a4.34,4.34,0,0,1-1.48-3.26V131.78a9.21,9.21,0,0,1-2.84-14c-7.26.23-14.56.58-21.85,1,0,.33.05.67.05,1a9.22,9.22,0,0,1-18.42.49c-5.94.58-11.85,1.26-17.68,2.06l17.63,271.44s9.07,7.16,24.62,13.74ZM166.72,175a9.23,9.23,0,1,1,8.66-.25l.51,7.09a9.23,9.23,0,1,1-8.64.65Z"/><path class="cls-2" d="M218.69,123.63a9.23,9.23,0,0,1-4.87,8.13v15.68l19.89,17.41v-6.49a9.22,9.22,0,0,1,5.16-16.87h.41a9.22,9.22,0,0,1,5.16,16.87v6.49l19.89-17.41V131.76a9.21,9.21,0,0,1-3-13.7c-14.17-.53-29.38-.79-45-.58A9.19,9.19,0,0,1,218.69,123.63Z"/><path class="cls-2" d="M315.91,121.57a9.22,9.22,0,0,1-18.27-1.5c-6.58-.48-13.66-.93-21.13-1.33a9.22,9.22,0,0,1-3.52,13v17.63a4.34,4.34,0,0,1-1.48,3.26l-27.07,23.68V298.82l14.23-11.27V197.2a4.39,4.39,0,0,1,1.86-3.6,4.36,4.36,0,0,1,1.33-1.79l21.71-17.19V160.19a9.23,9.23,0,1,1,8.66,0v16.51a4.36,4.36,0,0,1-1.65,3.4L267.49,198.4v49.29L283.57,235V220.52a9.22,9.22,0,1,1,8.66,0v16.51a4.32,4.32,0,0,1-1.65,3.39l-23.09,18.29v9.71a3.81,3.81,0,0,1,.07.75v20.26a3.64,3.64,0,0,1-.07.74v18.4a9.23,9.23,0,1,1-8.82-.21V298.6l-14.23,11.26v69.73L258,368.83V354.4a9.22,9.22,0,1,1,8.66,0v16.51a4.31,4.31,0,0,1-1.64,3.39l-20.6,16.32v27.61A128.27,128.27,0,0,0,258,416.94v-8.8a9.23,9.23,0,1,1,8.66,0v7.21a136.77,136.77,0,0,0,16.13-4.62V276.89a9.23,9.23,0,1,1,8.66.81v70.77l10.13-7.85v-14.4a9.23,9.23,0,1,1,8.66,0v16.51a4.32,4.32,0,0,1-1.68,3.42l-17.11,13.26v47.92a163.71,163.71,0,0,0,25.08-13.49L338.8,123.94C333.6,123.32,325.76,122.47,315.91,121.57Zm-.71,68.75A9.23,9.23,0,1,1,302.08,182l.52-7.27a9.22,9.22,0,1,1,8.65.44l-.52,7.3A9.19,9.19,0,0,1,315.2,190.32Z"/></svg>